<svg width="135" height="60" viewBox="0 0 135 60" fill="none" xmlns="http://www.w3.org/2000/svg">
<path d="M17.408 13.6529V17.2689H11.456V35.9889H6.976V17.2689H1.024V13.6529H17.408ZM34.3728 31.7329H25.4768L24.0048 35.9889H19.3008L27.3328 13.6209H32.5488L40.5808 35.9889H35.8448L34.3728 31.7329ZM33.1568 28.1489L29.9248 18.8049L26.6927 28.1489H33.1568ZM59.135 20.3729C58.623 19.4342 57.919 18.7196 57.023 18.2289C56.127 17.7382 55.0817 17.4929 53.887 17.4929C52.5643 17.4929 51.391 17.7916 50.367 18.3889C49.343 18.9862 48.543 19.8396 47.967 20.9489C47.391 22.0582 47.103 23.3382 47.103 24.7889C47.103 26.2822 47.391 27.5836 47.967 28.6929C48.5643 29.8022 49.3857 30.6556 50.431 31.2529C51.4763 31.8502 52.6923 32.1489 54.079 32.1489C55.7857 32.1489 57.183 31.7009 58.271 30.8049C59.359 29.8876 60.0737 28.6182 60.415 26.9969H52.735V23.5729H64.831V27.4769C64.5323 29.0342 63.8923 30.4742 62.911 31.7969C61.9297 33.1196 60.6603 34.1862 59.103 34.9969C57.567 35.7862 55.839 36.1809 53.919 36.1809C51.7643 36.1809 49.8123 35.7009 48.063 34.7409C46.335 33.7596 44.9697 32.4049 43.967 30.6769C42.9857 28.9489 42.495 26.9862 42.495 24.7889C42.495 22.5916 42.9857 20.6289 43.967 18.9009C44.9697 17.1516 46.335 15.7969 48.063 14.8369C49.8123 13.8556 51.7537 13.3649 53.887 13.3649C56.4043 13.3649 58.591 13.9836 60.447 15.2209C62.303 16.4369 63.583 18.1542 64.287 20.3729H59.135ZM87.2495 35.9889H82.7695L72.6255 20.6609V35.9889H68.1455V13.6209H72.6255L82.7695 28.9809V13.6209H87.2495V35.9889ZM102.045 36.2129C99.9541 36.2129 98.0341 35.7222 96.2848 34.7409C94.5354 33.7596 93.1488 32.4049 92.1248 30.6769C91.1008 28.9276 90.5888 26.9542 90.5888 24.7569C90.5888 22.5809 91.1008 20.6289 92.1248 18.9009C93.1488 17.1516 94.5354 15.7862 96.2848 14.8049C98.0341 13.8236 99.9541 13.3329 102.045 13.3329C104.157 13.3329 106.077 13.8236 107.805 14.8049C109.554 15.7862 110.93 17.1516 111.933 18.9009C112.957 20.6289 113.469 22.5809 113.469 24.7569C113.469 26.9542 112.957 28.9276 111.933 30.6769C110.93 32.4049 109.554 33.7596 107.805 34.7409C106.055 35.7222 104.135 36.2129 102.045 36.2129ZM102.045 32.2129C103.389 32.2129 104.573 31.9142 105.597 31.3169C106.621 30.6982 107.421 29.8236 107.997 28.6929C108.573 27.5622 108.861 26.2502 108.861 24.7569C108.861 23.2636 108.573 21.9622 107.997 20.8529C107.421 19.7222 106.621 18.8582 105.597 18.2609C104.573 17.6636 103.389 17.3649 102.045 17.3649C100.701 17.3649 99.5061 17.6636 98.4608 18.2609C97.4368 18.8582 96.6368 19.7222 96.0608 20.8529C95.4848 21.9622 95.1968 23.2636 95.1968 24.7569C95.1968 26.2502 95.4848 27.5622 96.0608 28.6929C96.6368 29.8236 97.4368 30.6982 98.4608 31.3169C99.5061 31.9142 100.701 32.2129 102.045 32.2129ZM124.514 36.2129C122.956 36.2129 121.548 35.9462 120.29 35.4129C119.052 34.8796 118.071 34.1116 117.346 33.1089C116.62 32.1062 116.247 30.9222 116.226 29.5569H121.026C121.09 30.4742 121.41 31.1996 121.986 31.7329C122.583 32.2662 123.394 32.5329 124.418 32.5329C125.463 32.5329 126.284 32.2876 126.882 31.7969C127.479 31.2849 127.778 30.6236 127.778 29.8129C127.778 29.1516 127.575 28.6076 127.17 28.1809C126.764 27.7542 126.252 27.4236 125.634 27.1889C125.036 26.9329 124.204 26.6556 123.138 26.3569C121.687 25.9302 120.503 25.5142 119.586 25.1089C118.69 24.6822 117.911 24.0529 117.25 23.2209C116.61 22.3676 116.29 21.2369 116.29 19.8289C116.29 18.5062 116.62 17.3542 117.282 16.3729C117.943 15.3916 118.871 14.6449 120.066 14.1329C121.26 13.5996 122.626 13.3329 124.162 13.3329C126.466 13.3329 128.332 13.8982 129.762 15.0289C131.212 16.1382 132.012 17.6956 132.162 19.7009H127.234C127.191 18.9329 126.86 18.3036 126.242 17.8129C125.644 17.3009 124.844 17.0449 123.842 17.0449C122.967 17.0449 122.263 17.2689 121.73 17.7169C121.218 18.1649 120.962 18.8156 120.962 19.6689C120.962 20.2662 121.154 20.7676 121.538 21.1729C121.943 21.5569 122.434 21.8769 123.01 22.1329C123.607 22.3676 124.439 22.6449 125.506 22.9649C126.956 23.3916 128.14 23.8182 129.058 24.2449C129.975 24.6716 130.764 25.3116 131.426 26.1649C132.087 27.0182 132.418 28.1382 132.418 29.5249C132.418 30.7196 132.108 31.8289 131.49 32.8529C130.871 33.8769 129.964 34.6982 128.77 35.3169C127.575 35.9142 126.156 36.2129 124.514 36.2129Z" fill="white"/>
<path d="M73.3926 53.1371C72.8046 53.1371 72.2773 53.0391 71.8106 52.8431C71.344 52.6378 70.9753 52.3578 70.7046 52.0031C70.434 51.6391 70.2846 51.2238 70.2566 50.7571H71.5726C71.61 51.1398 71.7873 51.4524 72.1046 51.6951C72.4313 51.9378 72.856 52.0591 73.3786 52.0591C73.864 52.0591 74.2466 51.9518 74.5266 51.7371C74.8066 51.5224 74.9466 51.2518 74.9466 50.9251C74.9466 50.5891 74.7973 50.3418 74.4986 50.1831C74.2 50.0151 73.738 49.8518 73.1126 49.6931C72.5433 49.5438 72.0766 49.3944 71.7126 49.2451C71.358 49.0864 71.05 48.8578 70.7886 48.5591C70.5366 48.2511 70.4106 47.8498 70.4106 47.3551C70.4106 46.9631 70.5273 46.6038 70.7606 46.2771C70.994 45.9504 71.3253 45.6938 71.7546 45.5071C72.184 45.3111 72.674 45.2131 73.2246 45.2131C74.074 45.2131 74.76 45.4278 75.2826 45.8571C75.8053 46.2864 76.0853 46.8744 76.1226 47.6211H74.8486C74.8206 47.2198 74.6573 46.8978 74.3586 46.6551C74.0693 46.4124 73.6773 46.2911 73.1826 46.2911C72.7253 46.2911 72.3613 46.3891 72.0906 46.5851C71.82 46.7811 71.6846 47.0378 71.6846 47.3551C71.6846 47.6071 71.764 47.8171 71.9226 47.9851C72.0906 48.1438 72.296 48.2744 72.5386 48.3771C72.7906 48.4704 73.136 48.5778 73.5746 48.6991C74.1253 48.8484 74.5733 48.9978 74.9186 49.1471C75.264 49.2871 75.558 49.5018 75.8006 49.7911C76.0526 50.0804 76.1833 50.4584 76.1926 50.9251C76.1926 51.3451 76.076 51.7231 75.8426 52.0591C75.6093 52.3951 75.278 52.6611 74.8486 52.8571C74.4286 53.0438 73.9433 53.1371 73.3926 53.1371ZM78.6491 44.0931C78.4064 44.0931 78.2011 44.0091 78.0331 43.8411C77.8651 43.6731 77.7811 43.4678 77.7811 43.2251C77.7811 42.9824 77.8651 42.7771 78.0331 42.6091C78.2011 42.4411 78.4064 42.3571 78.6491 42.3571C78.8824 42.3571 79.0784 42.4411 79.2371 42.6091C79.4051 42.7771 79.4891 42.9824 79.4891 43.2251C79.4891 43.4678 79.4051 43.6731 79.2371 43.8411C79.0784 44.0091 78.8824 44.0931 78.6491 44.0931ZM79.2651 45.3391V53.0111H77.9911V45.3391H79.2651ZM84.1524 53.1371C83.5644 53.1371 83.0371 53.0391 82.5704 52.8431C82.1037 52.6378 81.7351 52.3578 81.4644 52.0031C81.1937 51.6391 81.0444 51.2238 81.0164 50.7571H82.3324C82.3697 51.1398 82.5471 51.4524 82.8644 51.6951C83.1911 51.9378 83.6157 52.0591 84.1384 52.0591C84.6237 52.0591 85.0064 51.9518 85.2864 51.7371C85.5664 51.5224 85.7064 51.2518 85.7064 50.9251C85.7064 50.5891 85.5571 50.3418 85.2584 50.1831C84.9597 50.0151 84.4977 49.8518 83.8724 49.6931C83.3031 49.5438 82.8364 49.3944 82.4724 49.2451C82.1177 49.0864 81.8097 48.8578 81.5484 48.5591C81.2964 48.2511 81.1704 47.8498 81.1704 47.3551C81.1704 46.9631 81.2871 46.6038 81.5204 46.2771C81.7537 45.9504 82.0851 45.6938 82.5144 45.5071C82.9437 45.3111 83.4337 45.2131 83.9844 45.2131C84.8337 45.2131 85.5197 45.4278 86.0424 45.8571C86.5651 46.2864 86.8451 46.8744 86.8824 47.6211H85.6084C85.5804 47.2198 85.4171 46.8978 85.1184 46.6551C84.8291 46.4124 84.4371 46.2911 83.9424 46.2911C83.4851 46.2911 83.1211 46.3891 82.8504 46.5851C82.5797 46.7811 82.4444 47.0378 82.4444 47.3551C82.4444 47.6071 82.5237 47.8171 82.6824 47.9851C82.8504 48.1438 83.0557 48.2744 83.2984 48.3771C83.5504 48.4704 83.8957 48.5778 84.3344 48.6991C84.8851 48.8484 85.3331 48.9978 85.6784 49.1471C86.0237 49.2871 86.3177 49.5018 86.5604 49.7911C86.8124 50.0804 86.9431 50.4584 86.9524 50.9251C86.9524 51.3451 86.8357 51.7231 86.6024 52.0591C86.3691 52.3951 86.0377 52.6611 85.6084 52.8571C85.1884 53.0438 84.7031 53.1371 84.1524 53.1371ZM90.3049 46.3891V50.9111C90.3049 51.2844 90.3842 51.5504 90.5429 51.7091C90.7015 51.8584 90.9769 51.9331 91.3689 51.9331H92.3069V53.0111H91.1589C90.4495 53.0111 89.9175 52.8478 89.5629 52.5211C89.2082 52.1944 89.0309 51.6578 89.0309 50.9111V46.3891H88.0369V45.3391H89.0309V43.4071H90.3049V45.3391H92.3069V46.3891H90.3049ZM100.85 48.8811C100.85 49.1238 100.836 49.3804 100.808 49.6511H94.6765C94.7231 50.4071 94.9798 50.9998 95.4465 51.4291C95.9225 51.8491 96.4965 52.0591 97.1685 52.0591C97.7191 52.0591 98.1765 51.9331 98.5405 51.6811C98.9138 51.4198 99.1751 51.0744 99.3245 50.6451H100.696C100.491 51.3824 100.08 51.9844 99.4645 52.4511C98.8485 52.9084 98.0831 53.1371 97.1685 53.1371C96.4405 53.1371 95.7871 52.9738 95.2085 52.6471C94.6391 52.3204 94.1911 51.8584 93.8645 51.2611C93.5378 50.6544 93.3745 49.9544 93.3745 49.1611C93.3745 48.3678 93.5331 47.6724 93.8505 47.0751C94.1678 46.4778 94.6111 46.0204 95.1805 45.7031C95.7591 45.3764 96.4218 45.2131 97.1685 45.2131C97.8965 45.2131 98.5405 45.3718 99.1005 45.6891C99.6605 46.0064 100.09 46.4451 100.388 47.0051C100.696 47.5558 100.85 48.1811 100.85 48.8811ZM99.5345 48.6151C99.5345 48.1298 99.4271 47.7144 99.2125 47.3691C98.9978 47.0144 98.7038 46.7484 98.3305 46.5711C97.9665 46.3844 97.5605 46.2911 97.1125 46.2911C96.4685 46.2911 95.9178 46.4964 95.4605 46.9071C95.0125 47.3178 94.7558 47.8871 94.6905 48.6151H99.5345ZM111.758 45.1991C112.355 45.1991 112.887 45.3251 113.354 45.5771C113.821 45.8198 114.189 46.1884 114.46 46.6831C114.731 47.1778 114.866 47.7798 114.866 48.4891V53.0111H113.606V48.6711C113.606 47.9058 113.415 47.3224 113.032 46.9211C112.659 46.5104 112.15 46.3051 111.506 46.3051C110.843 46.3051 110.316 46.5198 109.924 46.9491C109.532 47.3691 109.336 47.9804 109.336 48.7831V53.0111H108.076V48.6711C108.076 47.9058 107.885 47.3224 107.502 46.9211C107.129 46.5104 106.62 46.3051 105.976 46.3051C105.313 46.3051 104.786 46.5198 104.394 46.9491C104.002 47.3691 103.806 47.9804 103.806 48.7831V53.0111H102.532V45.3391H103.806V46.4451C104.058 46.0438 104.394 45.7358 104.814 45.5211C105.243 45.3064 105.715 45.1991 106.228 45.1991C106.872 45.1991 107.441 45.3438 107.936 45.6331C108.431 45.9224 108.799 46.3471 109.042 46.9071C109.257 46.3658 109.611 45.9458 110.106 45.6471C110.601 45.3484 111.151 45.1991 111.758 45.1991ZM116.48 49.1471C116.48 48.3631 116.639 47.6771 116.956 47.0891C117.273 46.4918 117.707 46.0298 118.258 45.7031C118.818 45.3764 119.439 45.2131 120.12 45.2131C120.792 45.2131 121.375 45.3578 121.87 45.6471C122.365 45.9364 122.733 46.3004 122.976 46.7391V45.3391H124.264V53.0111H122.976V51.5831C122.724 52.0311 122.346 52.4044 121.842 52.7031C121.347 52.9924 120.769 53.1371 120.106 53.1371C119.425 53.1371 118.809 52.9691 118.258 52.6331C117.707 52.2971 117.273 51.8258 116.956 51.2191C116.639 50.6124 116.48 49.9218 116.48 49.1471ZM122.976 49.1611C122.976 48.5824 122.859 48.0784 122.626 47.6491C122.393 47.2198 122.075 46.8931 121.674 46.6691C121.282 46.4358 120.848 46.3191 120.372 46.3191C119.896 46.3191 119.462 46.4311 119.07 46.6551C118.678 46.8791 118.365 47.2058 118.132 47.6351C117.899 48.0644 117.782 48.5684 117.782 49.1471C117.782 49.7351 117.899 50.2484 118.132 50.6871C118.365 51.1164 118.678 51.4478 119.07 51.6811C119.462 51.9051 119.896 52.0171 120.372 52.0171C120.848 52.0171 121.282 51.9051 121.674 51.6811C122.075 51.4478 122.393 51.1164 122.626 50.6871C122.859 50.2484 122.976 49.7398 122.976 49.1611ZM129.133 53.1371C128.545 53.1371 128.018 53.0391 127.551 52.8431C127.084 52.6378 126.716 52.3578 126.445 52.0031C126.174 51.6391 126.025 51.2238 125.997 50.7571H127.313C127.35 51.1398 127.528 51.4524 127.845 51.6951C128.172 51.9378 128.596 52.0591 129.119 52.0591C129.604 52.0591 129.987 51.9518 130.267 51.7371C130.547 51.5224 130.687 51.2518 130.687 50.9251C130.687 50.5891 130.538 50.3418 130.239 50.1831C129.94 50.0151 129.478 49.8518 128.853 49.6931C128.284 49.5438 127.817 49.3944 127.453 49.2451C127.098 49.0864 126.79 48.8578 126.529 48.5591C126.277 48.2511 126.151 47.8498 126.151 47.3551C126.151 46.9631 126.268 46.6038 126.501 46.2771C126.734 45.9504 127.066 45.6938 127.495 45.5071C127.924 45.3111 128.414 45.2131 128.965 45.2131C129.814 45.2131 130.5 45.4278 131.023 45.8571C131.546 46.2864 131.826 46.8744 131.863 47.6211H130.589C130.561 47.2198 130.398 46.8978 130.099 46.6551C129.81 46.4124 129.418 46.2911 128.923 46.2911C128.466 46.2911 128.102 46.3891 127.831 46.5851C127.56 46.7811 127.425 47.0378 127.425 47.3551C127.425 47.6071 127.504 47.8171 127.663 47.9851C127.831 48.1438 128.036 48.2744 128.279 48.3771C128.531 48.4704 128.876 48.5778 129.315 48.6991C129.866 48.8484 130.314 48.9978 130.659 49.1471C131.004 49.2871 131.298 49.5018 131.541 49.7911C131.793 50.0804 131.924 50.4584 131.933 50.9251C131.933 51.3451 131.816 51.7231 131.583 52.0591C131.35 52.3951 131.018 52.6611 130.589 52.8571C130.169 53.0438 129.684 53.1371 129.133 53.1371Z" fill="white"/>
</svg>
