<svg width="20" height="21" viewBox="0 0 20 21" fill="none" xmlns="http://www.w3.org/2000/svg">
<g clip-path="url(#clip0_51_335)">
<path d="M13.3335 3H15.0002C15.4422 3 15.8661 3.17559 16.1787 3.48816C16.4912 3.80072 16.6668 4.22464 16.6668 4.66667V16.3333C16.6668 16.7754 16.4912 17.1993 16.1787 17.5118C15.8661 17.8244 15.4422 18 15.0002 18H5.00016C4.55814 18 4.13421 17.8244 3.82165 17.5118C3.50909 17.1993 3.3335 16.7754 3.3335 16.3333V4.66667C3.3335 4.22464 3.50909 3.80072 3.82165 3.48816C4.13421 3.17559 4.55814 3 5.00016 3H6.66683" stroke="white" stroke-linecap="round" stroke-linejoin="round"/>
<path d="M12.4998 1.33333H7.49984C7.0396 1.33333 6.6665 1.70643 6.6665 2.16667V3.83333C6.6665 4.29357 7.0396 4.66667 7.49984 4.66667H12.4998C12.9601 4.66667 13.3332 4.29357 13.3332 3.83333V2.16667C13.3332 1.70643 12.9601 1.33333 12.4998 1.33333Z" stroke="white" stroke-linecap="round" stroke-linejoin="round"/>
</g>
<defs>
<clipPath id="clip0_51_335">
<rect width="20" height="20" fill="white" transform="translate(0 0.5)"/>
</clipPath>
</defs>
</svg>
