<svg width="20" height="21" viewBox="0 0 20 21" fill="none" xmlns="http://www.w3.org/2000/svg">
<path d="M11.6668 2.16666H5.00016C4.55814 2.16666 4.13421 2.34226 3.82165 2.65482C3.50909 2.96738 3.3335 3.3913 3.3335 3.83333V17.1667C3.3335 17.6087 3.50909 18.0326 3.82165 18.3452C4.13421 18.6577 4.55814 18.8333 5.00016 18.8333H15.0002C15.4422 18.8333 15.8661 18.6577 16.1787 18.3452C16.4912 18.0326 16.6668 17.6087 16.6668 17.1667V7.16666L11.6668 2.16666Z" stroke="white" stroke-linecap="round" stroke-linejoin="round"/>
<path d="M11.6665 2.16666V7.16666H16.6665" stroke="white" stroke-linecap="round" stroke-linejoin="round"/>
<path d="M13.3332 11.3333H6.6665" stroke="white" stroke-linecap="round" stroke-linejoin="round"/>
<path d="M13.3332 14.6667H6.6665" stroke="white" stroke-linecap="round" stroke-linejoin="round"/>
<path d="M8.33317 8H7.49984H6.6665" stroke="white" stroke-linecap="round" stroke-linejoin="round"/>
</svg>
