<svg width="20" height="21" viewBox="0 0 20 21" fill="none" xmlns="http://www.w3.org/2000/svg">
<path d="M19.1668 16.3333C19.1668 16.7754 18.9912 17.1993 18.6787 17.5118C18.3661 17.8244 17.9422 18 17.5002 18H2.50016C2.05814 18 1.63421 17.8244 1.32165 17.5118C1.00909 17.1993 0.833496 16.7754 0.833496 16.3333V7.16667C0.833496 6.72464 1.00909 6.30072 1.32165 5.98816C1.63421 5.67559 2.05814 5.5 2.50016 5.5H5.8335L7.50016 3H12.5002L14.1668 5.5H17.5002C17.9422 5.5 18.3661 5.67559 18.6787 5.98816C18.9912 6.30072 19.1668 6.72464 19.1668 7.16667V16.3333Z" stroke="white" stroke-linecap="round" stroke-linejoin="round"/>
<path d="M9.99984 14.6667C11.8408 14.6667 13.3332 13.1743 13.3332 11.3333C13.3332 9.49238 11.8408 8 9.99984 8C8.15889 8 6.6665 9.49238 6.6665 11.3333C6.6665 13.1743 8.15889 14.6667 9.99984 14.6667Z" stroke="white" stroke-linecap="round" stroke-linejoin="round"/>
</svg>
